<svg width="512" height="512" viewBox="108 75 290 385" fill="none" xmlns="http://www.w3.org/2000/svg">
  <defs>
    <linearGradient id="bodyGrad" x1="180" y1="90" x2="330" y2="380">
      <stop offset="0%" stop-color="#27B7D8"/>
      <stop offset="100%" stop-color="#084D7D"/>
    </linearGradient>

    <linearGradient id="bubbleGrad" x1="185" y1="210" x2="350" y2="350">
      <stop offset="0%" stop-color="#20B6D7"/>
      <stop offset="100%" stop-color="#08669A"/>
    </linearGradient>

    <linearGradient id="bellyGrad" x1="225" y1="170" x2="285" y2="380">
      <stop offset="0%" stop-color="#FFFFFF"/>
      <stop offset="100%" stop-color="#CDEFF7"/>
    </linearGradient>
  </defs>

  <!-- Penguin body -->
  <path d="M158 319C166 225 180 100 256 100C332 100 346 225 354 319C359 384 313 420 256 420C199 420 153 384 158 319Z"
        fill="url(#bodyGrad)" stroke="#053F70" stroke-width="10" stroke-linejoin="round"/>

  <!-- Belly -->
  <path d="M204 174C217 147 238 140 256 140C274 140 295 147 308 174C321 203 325 278 307 332C294 372 276 392 256 392C236 392 218 372 205 332C187 278 191 203 204 174Z"
        fill="url(#bellyGrad)"/>

  <!-- Left wing -->
  <path d="M166 220C128 270 118 337 137 342C153 346 185 312 198 282L202 204Z"
        fill="#0B6FA0" stroke="#053F70" stroke-width="9" stroke-linejoin="round"/>

  <!-- Feet -->
  <path d="M219 416C198 419 182 434 190 444C198 454 221 447 235 435Z"
        fill="#0B83AD" stroke="#053F70" stroke-width="8" stroke-linejoin="round"/>
  <path d="M293 416C314 419 330 434 322 444C314 454 291 447 277 435Z"
        fill="#0B83AD" stroke="#053F70" stroke-width="8" stroke-linejoin="round"/>

  <!-- Eyes -->
  <circle cx="225" cy="187" r="11" fill="#053F70"/>
  <circle cx="287" cy="187" r="11" fill="#053F70"/>

  <!-- Beak -->
  <path d="M239 200L256 216L273 200C266 194 246 194 239 200Z"
        fill="#FF9F22" stroke="#F28A00" stroke-width="4" stroke-linejoin="round"/>

  <!-- Chat bubble -->
  <path d="M192 225H332C364 225 386 248 386 280V318C386 348 366 370 338 374V405L302 374H249L202 408V374C174 370 154 348 154 318V280C154 248 176 225 192 225Z"
        fill="url(#bubbleGrad)" stroke="#053F70" stroke-width="10" stroke-linejoin="round"/>

  <!-- Dots -->
  <circle cx="225" cy="302" r="13" fill="#FFFFFF"/>
  <circle cx="270" cy="302" r="13" fill="#FFFFFF"/>
  <circle cx="315" cy="302" r="13" fill="#FFFFFF"/>
</svg>
